<svg width="140" height="152" viewBox="0 0 140 152" fill="none" xmlns="http://www.w3.org/2000/svg">
<path d="M42.7139 36.8995C42.7139 47.2028 55.4762 52.0121 62.2759 44.2711L97.8276 3.79831C99.9484 1.38399 103.006 0 106.22 0H126.025C135.737 0 140.822 11.5389 134.269 18.7068L93.0244 63.8215C89.516 67.6591 83.643 68.7466 78.4622 68.3037C70.883 67.6557 60.2854 68.3672 48.5576 68.3672C46.3168 68.3672 44.1638 68.3412 42.1025 68.3036C36.0055 68.1926 31.1162 63.1683 31.1162 57.0703V23.7583C31.1162 18.151 26.5706 13.6055 20.9634 13.6055C15.3561 13.6055 10.8105 18.151 10.8105 23.7583V135.807C10.8105 141.414 15.3561 145.96 20.9634 145.96C26.5706 145.96 31.1162 141.414 31.1162 135.807V93.8952C31.1162 87.8642 35.9019 82.8676 41.9312 82.7243C44.0444 82.674 46.2547 82.6406 48.5576 82.6406C59.8978 82.6406 70.1807 83.4638 77.7001 83.0825C84.0155 82.7623 92.1664 83.9121 96.4243 88.5873L136.846 132.971C143.379 140.144 138.29 151.662 128.588 151.662H106.712C103.502 151.662 100.448 150.281 98.3273 147.872L62.2685 106.905C55.4647 99.175 42.7139 103.987 42.7139 114.285V140.492C42.7139 146.661 37.7129 151.662 31.5439 151.662H11.17C5.00097 151.662 0 146.661 0 140.492V11.17C0 5.00098 5.00097 0 11.17 0H31.5439C37.7129 0 42.7139 5.00097 42.7139 11.17V36.8995Z" fill="#FFA600"/>
</svg>
